PathFileType	4	(X/Y/Z)	C:/Users/beibeiliu/ov580/test_trc/User1\sequence.21_training_dense_right.trc
DataRate	CameraRate	NumFrames	NumMarkers	Units	OrigDataRate	OrigDataStartFrame	OrigNumFrames
120	120	12	19	mm	120	211	280
Frame#	Time	ThumbCMC			ThumbMCP			ThumbIP			ThumbTip			IndexMCP			IndexPIP			IndexTip			MiddleMCP			MiddlePIP			MiddleTip			RingMCP			RingPIP			RingTip			PinkyMCP			PinkyPIP			PinkyTip			BackHand1			BackHand2			BackHand3	
		X0	Y0	Z0	X1	Y1	Z1	X2	Y2	Z2	X3	Y3	Z3	X4	Y4	Z4	X5	Y5	Z5	X6	Y6	Z6	X7	Y7	Z7	X8	Y8	Z8	X9	Y9	Z9	X10	Y10	Z10	X11	Y11	Z11	X12	Y12	Z12	X13	Y13	Z13	X14	Y14	Z14	X15	Y15	Z15	X16	Y16	Z16	X17	Y17	Z17	X18	Y18	Z18	
210	1.75	119.933	39.0828	68.6563	110.632	45.1692	29.9369	125.948	51.2601	4.20076	146.962	45.3146	-8.91619	129.257	101.459	6.8763	133.936	112.125	-14.0482	135.89	125.035	-41.7901	157.353	105.719	-1.70842	153.409	119.151	-24.5503	156.035	127.911	-52.3209	174.915	92.5385	4.94217	172.469	109.379	-21.4242	171.353	120.479	-43.5865	191.149	70.1028	12.4563	189.539	84.4671	-7.34827	186.29	101.041	-24.5725	176.024	68.3105	53.0318	180.543	55.453	85.5045	146.364	70.4383	72.2438	
211	1.75833	116.018	44.2243	67.7154	105.425	46.8328	29.4583	122.82	53.7056	1.12612	151.014	45.5577	-12.2471	134.474	103.837	4.59904	138.041	115.033	-16.2602	142.452	125.462	-43.3934	159.935	104.075	1.29203	161.173	116.041	-24.2279	162.531	126.966	-53.5785	176.891	92.6364	0.969193	181.508	106.976	-22.793	180.976	116.532	-46.7586	193.845	69.044	9.51332	192.638	79.383	-5.0251	192.541	98.2848	-27.4538	179.146	69.1201	51.2922	183.971	51.6986	83.04	151.104	73.2126	70.2205	
212	1.76667	117.946	50.3518	66.1587	111.964	50.8586	30.1198	125.959	55.9452	-0.0531812	155.146	45.1755	-11.8722	142.161	105.789	4.94853	146.257	114.249	-16.2825	152.298	124.8	-43.8828	169.874	104.337	-2.67791	168.595	114.782	-24.7447	173.365	123.936	-54.7947	188.227	89.2614	-1.27564	187.088	104.089	-24.502	188.272	112.753	-48.5505	197.779	65.0197	7.13636	198.32	77.2252	-10.1147	198.128	92.1143	-30.1492	184.326	65.9255	52.665	183.243	52.0337	80.8027	153.63	73.7539	70.6173	
213	1.775	121.89	52.9541	66.702	115.437	57.8981	25.2587	133.149	57.3897	-1.07329	161.147	44.2831	-9.95231	150.065	104.76	6.65956	156.259	114.902	-17.8827	163.476	123.599	-46.3306	177.107	99.9758	-0.3598	180.609	112.609	-27.2701	186.721	120.172	-60.3771	190.484	86.7208	-0.4629	195.507	97.5288	-23.589	195.14	109.416	-50.9954	199.634	59.0647	8.66761	203.607	70.1568	-11.6387	200.285	85.9933	-29.3595	188.907	60.9227	54.4553	187.506	46.9407	83.8894	157.673	72.9906	73.7552	
214	1.78333	122.611	56.9621	66.9644	118.101	59.1151	27.9351	136.124	59.2358	-2.40309	158.97	42.5795	-12.5023	159.306	105.609	4.10674	167.952	112.301	-19.9934	173.422	118.84	-47.4246	183.246	98.194	-2.88603	191.133	105.73	-27.6381	193.532	116.469	-58.8889	196.676	82.2054	-1.06347	203.617	93.8618	-25.9111	205.823	100.906	-49.0632	204.239	53.5746	7.22793	205.107	66.6686	-13.2508	204.803	80.7806	-32.7526	194.11	58.1472	49.6762	192.326	45.2893	81.2982	164.421	71.1173	71.344	
215	1.79167	126.752	61.6161	65.5066	122.449	64.3086	24.8929	137.841	59.6531	0.129921	161.12	41.197	-11.5997	169.043	103.726	1.88611	176.373	112.286	-22.5167	182.297	114.133	-48.6537	189.196	96.6333	-5.4689	196.953	103.333	-28.9067	203.367	109.435	-61.4347	203.618	74.4151	-2.20465	208.092	89.7197	-27.6766	210.187	95.4913	-48.5618	204.566	50.7976	6.9868	210.413	58.783	-11.7404	211.469	74.1303	-30.1195	193.634	55.0645	51.7392	190.615	43.4792	81.7515	167.094	75.7441	70.1199	
216	1.8	127.128	66.0572	65.3795	123.45	65.2381	25.3269	142.248	58.0611	-0.40866	163.262	37.725	-9.4427	172.319	103.56	2.6203	181.405	108.61	-22.5055	189.988	109.556	-49.3985	193.122	91.5491	-2.35644	203.076	99.2015	-33.9304	205.28	107.046	-61.3881	204.964	73.4245	-2.94441	212.607	81.7828	-25.6526	215.164	91.4433	-53.0841	204.547	45.487	6.56436	208.071	56.882	-13.8686	214.919	68.4437	-36.2585	195.389	54.9591	49.5084	193.478	41.2366	79.4426	170.52	70.7209	71.0406	
217	1.80833	130.322	67.8644	65.5602	123.26	69.4284	23.7069	142.951	59.8493	-3.82871	160.152	37.0688	-6.95473	176.983	104.645	1.96425	185.756	108.837	-24.1963	194.817	107.701	-51.1067	200.565	87.8826	-6.88804	208.338	94.2997	-33.3445	213.235	99.6745	-65.5362	208.001	69.0187	-3.85459	217.627	76.1085	-28.6091	219.758	85.841	-52.2048	205.614	41.0766	6.28007	211.084	49.9696	-13.0385	215.691	65.4743	-31.8651	195.387	48.451	50.0506	193.654	39.8408	78.7727	173.643	72.2226	68.6947	
218	1.81667	133.512	70.9705	65.4297	127.753	71.8146	22.2568	145.345	59.9177	-4.39318	161.84	34.8371	-9.44584	182.113	101.743	0.75232	191.072	105.272	-26.039	201.875	101.937	-52.9259	202.87	86.076	-5.78757	213.4	89.6161	-34.821	218.872	93.8642	-65.7136	209.933	64.268	-5.14088	220.462	69.2327	-26.4055	223.534	77.086	-52.6826	203.6	39.2912	7.91453	213.048	42.9112	-11.0149	216.908	60.7244	-35.2233	197.003	47.6851	52.5061	191.295	39.6481	81.6756	178.314	70.9217	67.9315	
219	1.825	136.429	72.4002	65.2089	128.977	75.9008	21.1442	147.784	60.9667	-3.64549	161.098	33.9322	-7.30804	188.318	95.3095	0.75729	198.729	98.3234	-27.653	206.459	97.0347	-50.6566	208.445	80.3928	-7.5033	216.151	83.5712	-33.0765	222.285	87.6673	-63.1216	212.672	56.6333	-5.61472	220.716	65.0439	-28.5282	226.455	71.8422	-54.0408	204.183	36.1633	5.3067	210.495	40.2085	-10.8068	219.166	51.2697	-33.3193	196.75	43.4193	49.9275	189.451	36.9682	80.4476	177.209	70.5279	69.8929	
220	1.83333	138.294	78.5879	65.0522	134.862	76.7974	21.1494	147.292	60.5863	-3.98597	162.777	31.5441	-4.84078	193.357	97.4966	-2.01856	203.507	97.884	-28.8062	211.044	95.7653	-53.2211	211.897	74.3598	-8.57642	219.575	81.1186	-36.7241	226.031	78.1775	-64.6665	210.643	53.1055	-2.03937	222.397	57.3779	-29.5357	227.576	64.5483	-54.3484	201.411	31.7055	5.33422	212.728	33.687	-15.9703	219.706	46.8458	-32.7348	197.459	39.8557	48.8943	187.311	34.7818	82.0682	182.331	71.2452	64.2294	
221	1.84167	142.673	79.5944	62.7323	134.659	79.0269	20.234	148.121	61.6592	-1.68316	162.106	30.7709	-4.083	198.658	90.8392	-2.84992	206.865	90.0185	-25.8332	214.457	90.7322	-52.3491	212.02	68.782	-7.41243	221.12	76.7061	-37.7121	227.915	73.6417	-65.8652	210.226	46.6504	-3.57879	223.092	51.6091	-32.0971	228.098	58.7582	-53.8263	201.471	22.4647	5.29023	207.83	29.8186	-12.8492	219.973	35.101	-33.379	197.291	38.3098	51.2402	187.168	34.1028	81.9336	185.59	68.7508	67.5245	
